# xmcd
#
# Track frame offsets:
# 150
# 23720
# 46482
# 71182
# 86304
# 107870
# 132947
# 153490
# 172622
# 194650
# 211015
#
# Disc length: 3073 seconds
#
# Revision: 1
# Processed by: cddbd v1.5.1PL2 Copyright (c) Steve Scherf et al.
# Submitted via: Easy CD Ripper v2.37
#
DISCID=8f0bff0b
DTITLE=Lauren Ellis - Feels Like Family
DYEAR=2005
DGENRE=Blues
TTITLE0=Dry and a Bone - Lauren Ellis
TTITLE1=Shades of Blue - Lauren Ellis
TTITLE2=End of our Line - Lauren Ellis
TTITLE3=Afraid to Love - Lauren Ellis
TTITLE4=Just to be with You - Lauren Ellis
TTITLE5=Feels Like Family - Lauren Ellis
TTITLE6=When I See You - Lauren Ellis
TTITLE7=Livin' in a Dream - Lauren Ellis
TTITLE8=Setting Son - Lauren Ellis
TTITLE9=Oahu Song - Lauren Ellis
TTITLE10=Extra Mile - Lauren Ellis
EXTD=
EXTT0=
EXTT1=
EXTT2=
EXTT3=
EXTT4=
EXTT5=
EXTT6=
EXTT7=
EXTT8=
EXTT9=
EXTT10=
PLAYORDER=
